<?xml version="1.0" standalone="no"?>
<svg xmlns="http://www.w3.org/2000/svg" viewBox="0 0 223 77" width="223" height="77"><g fill="#ff5576" color="#ff5576" transform="translate(89.252 0) scale(0.44) "><svg width="100.0" height="100.0" x="0.0" y="0.0" viewBox="0 0 100 100"><g><path d="M80.853,69.288H19.144c-3.364,0-6.984-2.378-6.984-7.602V25.172c0-5.224,3.621-7.603,6.984-7.603h61.711   c3.362,0,6.982,2.379,6.982,7.603v36.515C87.838,66.91,84.217,69.288,80.853,69.288z M80.681,65.235l0.172,0.005   c0.689,0,2.937-0.257,2.937-3.554V25.172c0-3.298-2.246-3.555-2.934-3.555l-0.175,0.004l-41.999-0.004L19.32,21.621l-0.176-0.004   c-0.689,0-2.936,0.257-2.936,3.555v36.515c0,3.297,2.247,3.554,2.936,3.554l0.176-0.005l19.36,0.005L80.681,65.235z"></path><path d="M95.091,82.431H4.909c-1.118,0-2.024-0.906-2.024-2.024v-6.25c0-1.118,0.906-2.024,2.024-2.024h90.182   c1.118,0,2.024,0.906,2.024,2.024v6.25C97.115,81.524,96.209,82.431,95.091,82.431z M6.933,78.383h86.134v-2.202H6.933V78.383z"></path><polygon points="57.286,54.244 51.474,48.199 53.965,45.605 44.001,42.152 47.319,52.515 49.813,49.924 55.624,55.973  "></polygon></g></svg></g><path fill="#0b0cac" fill-rule="nonzero" d="M0 21.67L0 1.06L5.69 1.06Q7.90 1.06 9 2.28Q10.10 3.50 10.13 5.90L10.13 5.90L10.18 15.55Q10.20 18.60 9.12 20.14Q8.04 21.67 5.54 21.67L5.54 21.67L0 21.67ZM4.15 18.02L4.87 18.02Q6 18.02 6 16.92L6 16.92L6 6.29Q6 5.59 5.89 5.24Q5.78 4.90 5.50 4.78Q5.21 4.66 4.61 4.66L4.61 4.66L4.15 4.66L4.15 18.02ZM16.87 21.86Q11.62 21.86 11.62 16.42L11.62 16.42L11.62 9.36Q11.62 6.86 13.02 5.39Q14.42 3.91 16.87 3.91L16.87 3.91Q19.32 3.91 20.72 5.39Q22.13 6.86 22.13 9.36L22.13 9.36L22.13 16.42Q22.13 21.86 16.87 21.86L16.87 21.86ZM16.87 18.62Q17.38 18.62 17.62 18.26Q17.86 17.90 17.86 17.28L17.86 17.28L17.86 8.69Q17.86 7.15 16.87 7.15L16.87 7.15Q15.89 7.15 15.89 8.69L15.89 8.69L15.89 17.28Q15.89 17.90 16.13 18.26Q16.37 18.62 16.87 18.62L16.87 18.62ZM30.19 21.67L25.54 21.67L23.40 4.10L27 4.10L28.18 13.54L29.18 4.10L32.86 4.10L34.06 13.54L35.04 4.10L39 4.10L36.74 21.67L32.54 21.67L31.30 11.69L30.19 21.67ZM45.50 21.86Q40.25 21.86 40.25 16.42L40.25 16.42L40.25 9.36Q40.25 6.86 41.65 5.39Q43.06 3.91 45.50 3.91L45.50 3.91Q47.95 3.91 49.36 5.39Q50.76 6.86 50.76 9.36L50.76 9.36L50.76 16.42Q50.76 21.86 45.50 21.86L45.50 21.86ZM45.50 18.62Q46.01 18.62 46.25 18.26Q46.49 17.90 46.49 17.28L46.49 17.28L46.49 8.69Q46.49 7.15 45.50 7.15L45.50 7.15Q44.52 7.15 44.52 8.69L44.52 8.69L44.52 17.28Q44.52 17.90 44.76 18.26Q45 18.62 45.50 18.62L45.50 18.62ZM52.32 21.67L52.32 4.10L56.52 4.10L56.52 6.34Q56.78 5.26 57.43 4.58Q58.08 3.91 59.16 3.91L59.16 3.91Q60.94 3.91 61.79 5.00Q62.64 6.10 62.64 8.11L62.64 8.11L62.64 21.67L58.51 21.67L58.51 8.54Q58.51 7.97 58.28 7.56Q58.06 7.15 57.58 7.15L57.58 7.15Q56.93 7.15 56.72 7.74Q56.52 8.33 56.52 9.31L56.52 9.31L56.52 21.67L52.32 21.67ZM69.22 21.86Q66.50 21.86 65.33 20.38Q64.15 18.89 64.15 15.94L64.15 15.94L64.15 8.88Q64.15 6.46 65.54 5.18Q66.94 3.91 69.43 3.91L69.43 3.91Q74.50 3.91 74.50 8.88L74.50 8.88L74.50 10.15Q74.50 12.07 74.45 13.27L74.45 13.27L68.35 13.27L68.35 16.68Q68.35 17.59 68.54 18.11Q68.74 18.62 69.36 18.62L69.36 18.62Q69.84 18.62 70.04 18.34Q70.25 18.05 70.28 17.68Q70.32 17.30 70.32 16.58L70.32 16.58L70.32 14.88L74.50 14.88L74.50 15.89Q74.50 18.96 73.31 20.41Q72.12 21.86 69.22 21.86L69.22 21.86ZM68.33 11.18L70.32 11.18L70.32 8.93Q70.32 7.03 69.38 7.03L69.38 7.03Q68.33 7.03 68.33 8.93L68.33 8.93L68.33 11.18ZM75.67 24.60L75.67 21.94L77.69 21.94Q78.12 21.94 78.12 21.58L78.12 21.58Q78.12 21.41 78.10 21.31L78.10 21.31L75.36 4.10L79.37 4.10L80.16 12.67L80.54 17.04L81 12.67L81.94 4.10L85.97 4.10L82.70 22.58Q82.54 23.62 82.02 24.11Q81.50 24.60 80.40 24.60L80.40 24.60L75.67 24.60ZM99.41 21.67L94.37 21.67L92.16 1.06L96.19 1.06L97.34 14.06L98.50 1.06L102.34 1.06L103.44 14.06L104.54 1.06L108.62 1.06L106.37 21.67L101.42 21.67L100.39 11.74L99.41 21.67ZM114.70 21.86Q111.98 21.86 110.81 20.38Q109.63 18.89 109.63 15.94L109.63 15.94L109.63 8.88Q109.63 6.46 111.02 5.18Q112.42 3.91 114.91 3.91L114.91 3.91Q119.98 3.91 119.98 8.88L119.98 8.88L119.98 10.15Q119.98 12.07 119.93 13.27L119.93 13.27L113.83 13.27L113.83 16.68Q113.83 17.59 114.02 18.11Q114.22 18.62 114.84 18.62L114.84 18.62Q115.32 18.62 115.52 18.34Q115.73 18.05 115.76 17.68Q115.80 17.30 115.80 16.58L115.80 16.58L115.80 14.88L119.98 14.88L119.98 15.89Q119.98 18.96 118.79 20.41Q117.60 21.86 114.70 21.86L114.70 21.86ZM113.81 11.18L115.80 11.18L115.80 8.93Q115.80 7.03 114.86 7.03L114.86 7.03Q113.81 7.03 113.81 8.93L113.81 8.93L113.81 11.18ZM128.28 21.86Q126.55 21.86 125.81 19.80L125.81 19.80L125.81 21.67L121.49 21.67L121.49 0.94L125.81 0.94L125.81 4.94Q126.82 3.91 128.16 3.91L128.16 3.91Q130.20 3.91 131.09 5.12Q131.98 6.34 131.98 8.62L131.98 8.62L131.98 17.09Q131.98 19.25 131.06 20.56Q130.15 21.86 128.28 21.86L128.28 21.86ZM126.86 18.60Q127.30 18.60 127.48 18.32Q127.66 18.05 127.69 17.63Q127.73 17.21 127.73 16.32L127.73 16.32L127.73 9Q127.73 8.06 127.56 7.61Q127.39 7.15 126.84 7.15L126.84 7.15Q126.24 7.15 126.02 7.61Q125.81 8.06 125.81 8.95L125.81 8.95L125.81 16.32Q125.81 17.47 126.00 18.04Q126.19 18.60 126.86 18.60L126.86 18.60ZM139.42 15.70L133.37 15.70L133.37 12.98L139.42 12.98L139.42 15.70ZM145.94 21.86Q143.14 21.86 141.89 20.47Q140.64 19.08 140.64 15.98L140.64 15.98L140.64 13.97L144.70 13.97L144.70 16.54Q144.70 18.07 145.68 18.07L145.68 18.07Q146.23 18.07 146.45 17.75Q146.66 17.42 146.66 16.66L146.66 16.66Q146.66 15.65 146.42 14.99Q146.18 14.33 145.81 13.88Q145.44 13.44 144.48 12.50L144.48 12.50L142.70 10.73Q140.64 8.71 140.64 6.26L140.64 6.26Q140.64 3.62 141.85 2.24Q143.06 0.86 145.39 0.86L145.39 0.86Q148.18 0.86 149.40 2.34Q150.62 3.82 150.62 6.96L150.62 6.96L146.42 6.96L146.40 5.54Q146.40 5.14 146.17 4.90Q145.94 4.66 145.54 4.66L145.54 4.66Q145.06 4.66 144.82 4.92Q144.58 5.18 144.58 5.64L144.58 5.64Q144.58 6.65 145.73 7.73L145.73 7.73L148.13 10.03Q148.97 10.85 149.52 11.58Q150.07 12.31 150.41 13.31Q150.74 14.30 150.74 15.67L150.74 15.67Q150.74 18.72 149.63 20.29Q148.51 21.86 145.94 21.86L145.94 21.86ZM156.96 21.86Q154.25 21.86 153.07 20.38Q151.90 18.89 151.90 15.94L151.90 15.94L151.90 8.88Q151.90 6.46 153.29 5.18Q154.68 3.91 157.18 3.91L157.18 3.91Q162.24 3.91 162.24 8.88L162.24 8.88L162.24 10.15Q162.24 12.07 162.19 13.27L162.19 13.27L156.10 13.27L156.10 16.68Q156.10 17.59 156.29 18.11Q156.48 18.62 157.10 18.62L157.10 18.62Q157.58 18.62 157.79 18.34Q157.99 18.05 158.03 17.68Q158.06 17.30 158.06 16.58L158.06 16.58L158.06 14.88L162.24 14.88L162.24 15.89Q162.24 18.96 161.05 20.41Q159.86 21.86 156.96 21.86L156.96 21.86ZM156.07 11.18L158.06 11.18L158.06 8.93Q158.06 7.03 157.13 7.03L157.13 7.03Q156.07 7.03 156.07 8.93L156.07 8.93L156.07 11.18ZM163.75 21.67L163.75 4.10L167.95 4.10L167.95 6.05Q168.26 5.02 169.04 4.45Q169.82 3.89 170.98 3.89L170.98 3.89L170.98 7.39Q170.09 7.39 169.02 7.64Q167.95 7.90 167.95 8.23L167.95 8.23L167.95 21.67L163.75 21.67ZM179.11 21.67L174.24 21.67L171.43 4.10L175.63 4.10L176.50 12.98L176.64 15.84L176.81 12.96L177.77 4.10L181.97 4.10L179.11 21.67ZM187.25 2.93L183.05 2.93L183.05 0L187.25 0L187.25 2.93ZM187.25 21.67L183.05 21.67L183.05 4.10L187.25 4.10L187.25 21.67ZM194.18 21.86Q191.30 21.86 190.03 20.40Q188.76 18.94 188.76 15.91L188.76 15.91L188.76 10.49Q188.76 8.21 189.25 6.78Q189.74 5.35 190.91 4.63Q192.07 3.91 194.14 3.91L194.14 3.91Q196.39 3.91 197.81 5.09Q199.22 6.26 199.22 8.38L199.22 8.38L199.22 11.06L194.95 11.06L194.95 8.59Q194.95 7.90 194.76 7.52Q194.57 7.15 194.02 7.15L194.02 7.15Q192.98 7.15 192.98 8.62L192.98 8.62L192.98 17.14Q192.98 17.74 193.24 18.16Q193.49 18.58 193.99 18.58L193.99 18.58Q194.50 18.58 194.75 18.17Q195 17.76 194.98 17.11L194.98 17.11L194.95 14.16L199.22 14.16L199.22 17.23Q199.22 19.39 197.82 20.63Q196.42 21.86 194.18 21.86L194.18 21.86ZM205.61 21.86Q202.90 21.86 201.72 20.38Q200.54 18.89 200.54 15.94L200.54 15.94L200.54 8.88Q200.54 6.46 201.94 5.18Q203.33 3.91 205.82 3.91L205.82 3.91Q210.89 3.91 210.89 8.88L210.89 8.88L210.89 10.15Q210.89 12.07 210.84 13.27L210.84 13.27L204.74 13.27L204.74 16.68Q204.74 17.59 204.94 18.11Q205.13 18.62 205.75 18.62L205.75 18.62Q206.23 18.62 206.44 18.34Q206.64 18.05 206.68 17.68Q206.71 17.30 206.71 16.58L206.71 16.58L206.71 14.88L210.89 14.88L210.89 15.89Q210.89 18.96 209.70 20.41Q208.51 21.86 205.61 21.86L205.61 21.86ZM204.72 11.18L206.71 11.18L206.71 8.93Q206.71 7.03 205.78 7.03L205.78 7.03Q204.72 7.03 204.72 8.93L204.72 8.93L204.72 11.18ZM217.22 21.86Q212.02 21.86 212.02 16.58L212.02 16.58L212.04 15.19L216.24 15.19L216.26 17.26Q216.26 17.88 216.50 18.20Q216.74 18.53 217.30 18.53L217.30 18.53Q218.14 18.53 218.14 17.16L218.14 17.16Q218.14 16.15 217.74 15.58Q217.34 15 216.48 14.35L216.48 14.35L214.25 12.62Q213.10 11.74 212.59 10.79Q212.09 9.84 212.09 8.11L212.09 8.11Q212.09 6.77 212.80 5.82Q213.50 4.87 214.68 4.39Q215.86 3.91 217.30 3.91L217.30 3.91Q222.41 3.91 222.41 9L222.41 9L222.41 9.34L218.06 9.34L218.06 8.66Q218.06 8.04 217.86 7.60Q217.66 7.15 217.18 7.15L217.18 7.15Q216.74 7.15 216.52 7.40Q216.29 7.66 216.29 8.09L216.29 8.09Q216.29 9.05 217.03 9.58L217.03 9.58L219.62 11.47Q221.02 12.50 221.76 13.72Q222.50 14.93 222.50 16.78L222.50 16.78Q222.50 19.22 221.11 20.54Q219.72 21.86 217.22 21.86L217.22 21.86Z" transform="translate(0, 52)"></path></svg>